#N canvas 553 105 829 732 12;
#X obj 92 351 comport;
#X msg 230 194 devices;
#X text 290 194 Lister les ports dans la fenêtre Pd;
#X obj 90 560 print;
#X text 132 560 Les données reçues sont imprimées dans la fenêtre Pd;
#X msg 321 317 close;
#X text 371 318 Libérer le port;
#X obj 90 526 spigot;
#X obj 181 505 tgl 19 0 empty empty empty 0 -10 0 12 #fcfcfc #000000 #000000 0 1;
#X msg 235 245 close \, baud 115200 \, open 4;
#X text 281 408 Traiter les données ASCII;
#X obj 92 407 pdchoco/ascii_parse 10;
#X obj 183 451 loadbang;
#X msg 183 478 1;
#X connect 0 0 11 0;
#X connect 1 0 0 0;
#X connect 5 0 0 0;
#X connect 7 0 3 0;
#X connect 8 0 7 1;
#X connect 9 0 0 0;
#X connect 11 0 7 0;
#X connect 12 0 13 0;
#X connect 13 0 8 0;
