#N canvas 553 105 829 732 12;
#X obj 92 351 comport;
#X msg 230 194 devices;
#X text 290 194 Lister les ports dans la fenêtre Pd;
#X obj 275 619 print;
#X text 317 619 Les données reçues sont imprimées dans la fenêtre Pd;
#X msg 321 317 close;
#X text 371 318 Libérer le port;
#X obj 92 407 pdchoco/slip_parse;
#X obj 93 481 oscparse;
#X obj 93 508 list trim;
#X text 226 408 Traiter les données SLIP;
#X text 159 481 Traiter les données OSC;
#X text 166 506 Retirer le préfixe list;
#X obj 94 140 pdchoco/slip_pack;
#X floatatom 94 665 5 0 0 0 - - - 0;
#X obj 275 585 spigot;
#X obj 319 539 tgl 19 0 empty empty empty 0 -10 0 12 #fcfcfc #000000 #000000 0 1;
#X obj 94 575 route vcf;
#X obj 80 615 route cut;
#X floatatom 49 42 5 0 0 0 - - - 0;
#X msg 235 245 close \, baud 115200 \, open 4;
#X obj 48 70 oscformat -f f vca dcy;
#X floatatom 246 38 5 0 0 0 - - - 0;
#X obj 245 66 oscformat -f f vcf atk;
#X floatatom 414 36 5 0 0 0 - - - 0;
#X obj 413 64 oscformat -f f vcf dcy;
#X floatatom 597 34 5 0 0 0 - - - 0;
#X obj 596 62 oscformat -f f vcf mod;
#X floatatom 429 120 5 0 0 0 - - - 0;
#X obj 428 148 oscformat -f f vcf cut;
#X floatatom 607 121 5 0 0 0 - - - 0;
#X obj 606 149 oscformat -f f vcf res;
#X connect 0 0 7 0;
#X connect 1 0 0 0;
#X connect 5 0 0 0;
#X connect 7 0 8 0;
#X connect 8 0 9 0;
#X connect 9 0 17 0;
#X connect 9 0 15 0;
#X connect 13 0 0 0;
#X connect 15 0 3 0;
#X connect 16 0 15 1;
#X connect 17 0 18 0;
#X connect 18 0 14 0;
#X connect 19 0 21 0;
#X connect 20 0 0 0;
#X connect 21 0 13 0;
#X connect 22 0 23 0;
#X connect 23 0 13 0;
#X connect 24 0 25 0;
#X connect 25 0 13 0;
#X connect 26 0 27 0;
#X connect 27 0 13 0;
#X connect 28 0 29 0;
#X connect 29 0 13 0;
#X connect 30 0 31 0;
#X connect 31 0 13 0;
